REM MD5 7e47018b73dcec1bf9583ef129831b53
FILE "Hogs of War - Nati per Soffritto (Italy).bin" BINARY
  TRACK 01 MODE2/2352
    INDEX 01 00:00:00
  TRACK 02 AUDIO
    INDEX 00 38:51:53
    INDEX 01 38:53:53
  TRACK 03 AUDIO
    INDEX 00 41:40:51
    INDEX 01 41:42:51
REM LEADOUT 42:52:47
